<svg width="98" height="33" viewBox="0 0 98 33" fill="none" xmlns="http://www.w3.org/2000/svg">
<path d="M42.584 27.336C41.224 27.336 39.904 27.168 38.624 26.832C37.344 26.496 36.304 26.048 35.504 25.488L37.064 21.984C37.816 22.48 38.688 22.88 39.68 23.184C40.672 23.488 41.648 23.64 42.608 23.64C44.432 23.64 45.344 23.184 45.344 22.272C45.344 21.792 45.08 21.44 44.552 21.216C44.04 20.976 43.208 20.728 42.056 20.472C40.792 20.2 39.736 19.912 38.888 19.608C38.04 19.288 37.312 18.784 36.704 18.096C36.096 17.408 35.792 16.48 35.792 15.312C35.792 14.288 36.072 13.368 36.632 12.552C37.192 11.72 38.024 11.064 39.128 10.584C40.248 10.104 41.616 9.864 43.232 9.864C44.336 9.864 45.424 9.992 46.496 10.248C47.568 10.488 48.512 10.848 49.328 11.328L47.864 14.856C46.264 13.992 44.712 13.56 43.208 13.56C42.264 13.56 41.576 13.704 41.144 13.992C40.712 14.264 40.496 14.624 40.496 15.072C40.496 15.52 40.752 15.856 41.264 16.08C41.776 16.304 42.6 16.536 43.736 16.776C45.016 17.048 46.072 17.344 46.904 17.664C47.752 17.968 48.48 18.464 49.088 19.152C49.712 19.824 50.024 20.744 50.024 21.912C50.024 22.92 49.744 23.832 49.184 24.648C48.624 25.464 47.784 26.12 46.664 26.616C45.544 27.096 44.184 27.336 42.584 27.336ZM63.4751 23.736H56.3711L55.0511 27H50.2031L57.6191 10.2H62.2991L69.7391 27H64.7951L63.4751 23.736ZM62.0831 20.232L59.9231 14.856L57.7631 20.232H62.0831ZM71.0863 10.2H75.8383V23.232H83.8543V27H71.0863V10.2ZM87.7404 13.968H82.5804V10.2H97.6284V13.968H92.4924V27H87.7404V13.968Z" fill="#2CBBA1"/>
<path d="M2.19779 14.5344C0.869646 13.5956 -6.48499e-05 12.0413 -6.48499e-05 10.2863C-6.48499e-05 7.42688 2.30883 5.10063 5.14687 5.10063H6.9291C6.97438 2.28063 9.26528 0 12.0754 0C14.8855 0 17.1764 2.28063 17.2217 5.10063H19.0039C21.842 5.10063 24.1509 7.42688 24.1509 10.2863C24.1509 12.0413 23.2812 13.5956 21.953 14.5344C23.2812 15.4731 24.1509 17.0269 24.1509 18.7819C24.1509 21.6413 21.842 23.9675 19.0039 23.9675H18.7732C17.9177 23.9675 17.2223 24.6688 17.2223 25.53V29.8125C17.2223 31.0187 16.2484 32 15.0512 32H13.0059V21.8625L15.9798 19.6756C16.3948 19.3706 16.486 18.7838 16.1833 18.3656C15.8799 17.9475 15.2981 17.8556 14.883 18.1612L13.0059 19.5413V14.8L15.9798 12.6131C16.3948 12.3081 16.486 11.7213 16.1833 11.3031C15.8799 10.885 15.2981 10.7931 14.883 11.0988L13.0059 12.4788V9.69C13.0059 9.17188 12.589 8.7525 12.0754 8.7525C11.5618 8.7525 11.1449 9.17188 11.1449 9.69V12.4788L9.26776 11.0988C8.85276 10.7931 8.27088 10.885 7.96754 11.3031C7.66481 11.7213 7.756 12.3081 8.17101 12.6131L11.1449 14.8V19.5413L9.26776 18.1612C8.85276 17.8556 8.27088 17.9475 7.96754 18.3656C7.66481 18.7838 7.756 19.3706 8.17101 19.6756L11.1449 21.8625V32H9.09965C7.9024 32 6.92847 31.0187 6.92847 29.8125V25.53C6.92847 24.6688 6.23308 23.9675 5.37763 23.9675H5.14687C2.30883 23.9675 -6.48499e-05 21.6413 -6.48499e-05 18.7819C-6.48499e-05 17.0269 0.869646 15.4731 2.19779 14.5344Z" fill="#2CBBA1"/>
</svg>
